<mxfile host="app.diagrams.net" modified="2022-01-22T18:39:23.789Z" agent="5.0 (X11; Linux x86_64) AppleWebKit/537.36 (KHTML, like Gecko) Chrome/97.0.4692.99 Safari/537.36" etag="kBykqEbGrcrN96YCqL_w" version="16.4.3" type="github">
  <diagram id="8jfyE90RRNObh0BSDH4P" name="Page-1">
    <mxGraphModel dx="1635" dy="905" grid="1" gridSize="10" guides="1" tooltips="1" connect="1" arrows="1" fold="1" page="1" pageScale="1" pageWidth="827" pageHeight="1169" math="0" shadow="0">
      <root>
        <mxCell id="0" />
        <mxCell id="1" parent="0" />
        <mxCell id="e08RUBoJ7VVwQUKtB3GE-66" value="Form Builder System" style="rounded=0;whiteSpace=wrap;html=1;fillColor=none;labelPosition=center;verticalLabelPosition=top;align=center;verticalAlign=bottom;" parent="1" vertex="1">
          <mxGeometry x="300" y="170" width="250" height="480" as="geometry" />
        </mxCell>
        <mxCell id="e08RUBoJ7VVwQUKtB3GE-75" style="edgeStyle=orthogonalEdgeStyle;rounded=0;orthogonalLoop=1;jettySize=auto;html=1;" parent="1" source="e08RUBoJ7VVwQUKtB3GE-67" target="e08RUBoJ7VVwQUKtB3GE-41" edge="1">
          <mxGeometry relative="1" as="geometry">
            <Array as="points">
              <mxPoint x="870" y="410" />
              <mxPoint x="870" y="267" />
            </Array>
          </mxGeometry>
        </mxCell>
        <mxCell id="e08RUBoJ7VVwQUKtB3GE-77" style="edgeStyle=orthogonalEdgeStyle;rounded=0;orthogonalLoop=1;jettySize=auto;html=1;" parent="1" source="e08RUBoJ7VVwQUKtB3GE-67" target="e08RUBoJ7VVwQUKtB3GE-6" edge="1">
          <mxGeometry relative="1" as="geometry" />
        </mxCell>
        <mxCell id="e08RUBoJ7VVwQUKtB3GE-78" style="edgeStyle=orthogonalEdgeStyle;rounded=0;orthogonalLoop=1;jettySize=auto;html=1;entryX=0.005;entryY=0.63;entryDx=0;entryDy=0;entryPerimeter=0;" parent="1" source="e08RUBoJ7VVwQUKtB3GE-67" target="e08RUBoJ7VVwQUKtB3GE-7" edge="1">
          <mxGeometry relative="1" as="geometry">
            <Array as="points">
              <mxPoint x="870" y="410" />
              <mxPoint x="870" y="555" />
            </Array>
          </mxGeometry>
        </mxCell>
        <mxCell id="e08RUBoJ7VVwQUKtB3GE-67" value="Workflow Builder System" style="rounded=0;whiteSpace=wrap;html=1;fillColor=none;labelPosition=center;verticalLabelPosition=top;align=center;verticalAlign=bottom;" parent="1" vertex="1">
          <mxGeometry x="596" y="170" width="250" height="480" as="geometry" />
        </mxCell>
        <mxCell id="e08RUBoJ7VVwQUKtB3GE-68" value="Services / Providers" style="rounded=0;whiteSpace=wrap;html=1;fillColor=none;labelPosition=center;verticalLabelPosition=top;align=center;verticalAlign=bottom;" parent="1" vertex="1">
          <mxGeometry x="892" y="170" width="297" height="480" as="geometry" />
        </mxCell>
        <mxCell id="e08RUBoJ7VVwQUKtB3GE-59" style="edgeStyle=orthogonalEdgeStyle;rounded=0;orthogonalLoop=1;jettySize=auto;html=1;entryX=0.5;entryY=1;entryDx=0;entryDy=0;entryPerimeter=0;" parent="1" source="e08RUBoJ7VVwQUKtB3GE-1" target="e08RUBoJ7VVwQUKtB3GE-4" edge="1">
          <mxGeometry relative="1" as="geometry" />
        </mxCell>
        <mxCell id="e08RUBoJ7VVwQUKtB3GE-1" value="Form Builder" style="sketch=0;pointerEvents=1;shadow=0;dashed=0;html=1;strokeColor=none;fillColor=#505050;labelPosition=center;verticalLabelPosition=bottom;verticalAlign=top;outlineConnect=0;align=center;shape=mxgraph.office.concepts.form;" parent="1" vertex="1">
          <mxGeometry x="380" y="339" width="86" height="79" as="geometry" />
        </mxCell>
        <mxCell id="e08RUBoJ7VVwQUKtB3GE-60" style="edgeStyle=orthogonalEdgeStyle;rounded=0;orthogonalLoop=1;jettySize=auto;html=1;entryX=0.5;entryY=1;entryDx=0;entryDy=0;entryPerimeter=0;" parent="1" source="e08RUBoJ7VVwQUKtB3GE-2" target="e08RUBoJ7VVwQUKtB3GE-5" edge="1">
          <mxGeometry relative="1" as="geometry" />
        </mxCell>
        <mxCell id="e08RUBoJ7VVwQUKtB3GE-2" value="Workflow Builder" style="verticalLabelPosition=bottom;html=1;verticalAlign=top;strokeWidth=1;align=center;outlineConnect=0;dashed=0;outlineConnect=0;shape=mxgraph.aws3d.workflowService;fillColor=#ECECEC;strokeColor=#5E5E5E;aspect=fixed;" parent="1" vertex="1">
          <mxGeometry x="670.28" y="350" width="85.94" height="70" as="geometry" />
        </mxCell>
        <mxCell id="e08RUBoJ7VVwQUKtB3GE-4" value="Form Builder&lt;br&gt;DB" style="shape=cylinder3;whiteSpace=wrap;html=1;boundedLbl=1;backgroundOutline=1;size=15;" parent="1" vertex="1">
          <mxGeometry x="393" y="190" width="60" height="80" as="geometry" />
        </mxCell>
        <mxCell id="e08RUBoJ7VVwQUKtB3GE-5" value="Workflow Builder DB" style="shape=cylinder3;whiteSpace=wrap;html=1;boundedLbl=1;backgroundOutline=1;size=15;" parent="1" vertex="1">
          <mxGeometry x="683.25" y="190" width="60" height="80" as="geometry" />
        </mxCell>
        <mxCell id="e08RUBoJ7VVwQUKtB3GE-6" value="Google Sheets" style="shape=image;html=1;verticalAlign=top;verticalLabelPosition=bottom;labelBackgroundColor=#ffffff;imageAspect=0;aspect=fixed;image=https://cdn3.iconfinder.com/data/icons/cad-database-presentation-spreadsheet-vector-fil-2/512/22-128.png" parent="1" vertex="1">
          <mxGeometry x="930.04" y="372" width="75" height="75" as="geometry" />
        </mxCell>
        <mxCell id="e08RUBoJ7VVwQUKtB3GE-69" style="edgeStyle=orthogonalEdgeStyle;rounded=0;orthogonalLoop=1;jettySize=auto;html=1;entryX=0;entryY=0.5;entryDx=0;entryDy=0;entryPerimeter=0;" parent="1" source="e08RUBoJ7VVwQUKtB3GE-7" target="e08RUBoJ7VVwQUKtB3GE-42" edge="1">
          <mxGeometry relative="1" as="geometry" />
        </mxCell>
        <mxCell id="e08RUBoJ7VVwQUKtB3GE-7" value="Nognio" style="sketch=0;html=1;dashed=0;whitespace=wrap;fillColor=#2875E2;strokeColor=#ffffff;points=[[0.005,0.63,0],[0.1,0.2,0],[0.9,0.2,0],[0.5,0,0],[0.995,0.63,0],[0.72,0.99,0],[0.5,1,0],[0.28,0.99,0]];shape=mxgraph.kubernetes.icon;prIcon=api;labelPosition=center;verticalLabelPosition=bottom;align=center;verticalAlign=top;spacing=0;" parent="1" vertex="1">
          <mxGeometry x="931" y="501.75" width="75" height="84.5" as="geometry" />
        </mxCell>
        <mxCell id="e08RUBoJ7VVwQUKtB3GE-41" value="Email Service" style="verticalLabelPosition=bottom;html=1;verticalAlign=top;strokeWidth=1;align=center;outlineConnect=0;dashed=0;outlineConnect=0;shape=mxgraph.aws3d.email_service;fillColor=#ECECEC;strokeColor=#5E5E5E;aspect=fixed;" parent="1" vertex="1">
          <mxGeometry x="937.04" y="228" width="61.35" height="78" as="geometry" />
        </mxCell>
        <mxCell id="e08RUBoJ7VVwQUKtB3GE-42" value="Nognio&lt;br&gt;DB" style="shape=cylinder3;whiteSpace=wrap;html=1;boundedLbl=1;backgroundOutline=1;size=15;" parent="1" vertex="1">
          <mxGeometry x="1064" y="505" width="60" height="80" as="geometry" />
        </mxCell>
        <mxCell id="e08RUBoJ7VVwQUKtB3GE-74" style="edgeStyle=orthogonalEdgeStyle;rounded=0;orthogonalLoop=1;jettySize=auto;html=1;" parent="1" source="e08RUBoJ7VVwQUKtB3GE-66" target="e08RUBoJ7VVwQUKtB3GE-57" edge="1">
          <mxGeometry relative="1" as="geometry">
            <Array as="points">
              <mxPoint x="570" y="379" />
              <mxPoint x="570" y="500" />
            </Array>
          </mxGeometry>
        </mxCell>
        <mxCell id="e08RUBoJ7VVwQUKtB3GE-43" value="Form" style="shape=note;size=20;whiteSpace=wrap;html=1;" parent="1" vertex="1">
          <mxGeometry x="397" y="470" width="44" height="60" as="geometry" />
        </mxCell>
        <mxCell id="e08RUBoJ7VVwQUKtB3GE-45" value="Form" style="shape=note;size=20;whiteSpace=wrap;html=1;" parent="1" vertex="1">
          <mxGeometry x="397" y="555" width="44" height="60" as="geometry" />
        </mxCell>
        <mxCell id="e08RUBoJ7VVwQUKtB3GE-57" value="Workflow" style="shape=image;html=1;verticalAlign=top;verticalLabelPosition=bottom;labelBackgroundColor=#ffffff;imageAspect=0;aspect=fixed;image=https://cdn0.iconfinder.com/data/icons/maternity-and-pregnancy-2/512/125_flowchart_Algorithm_business_data_architecture_scheme_structure_workflow-128.png" parent="1" vertex="1">
          <mxGeometry x="678.25" y="465" width="70" height="70" as="geometry" />
        </mxCell>
        <mxCell id="e08RUBoJ7VVwQUKtB3GE-58" value="Workflow" style="shape=image;html=1;verticalAlign=top;verticalLabelPosition=bottom;labelBackgroundColor=#ffffff;imageAspect=0;aspect=fixed;image=https://cdn0.iconfinder.com/data/icons/maternity-and-pregnancy-2/512/125_flowchart_Algorithm_business_data_architecture_scheme_structure_workflow-128.png" parent="1" vertex="1">
          <mxGeometry x="678.25" y="550" width="70" height="70" as="geometry" />
        </mxCell>
      </root>
    </mxGraphModel>
  </diagram>
</mxfile>
